<svg width="40" height="24" viewBox="0 0 40 24" fill="none" xmlns="http://www.w3.org/2000/svg">
<path fill-rule="evenodd" clip-rule="evenodd" d="M39.8668 17.7161L37.1855 6.25969C36.4635 3.17342 33.6342 0 29.3258 0H10.6745C7.52112 0 3.80105 2.04268 2.81442 6.25969L0.133162 17.7161C-0.594678 20.826 1.75303 23.8095 4.93446 23.8095C6.28638 23.8095 7.55804 23.0854 8.25292 21.9203L10.3183 18.4596C10.6714 17.8674 11.3172 17.4998 12.0038 17.4998H27.9958C28.6825 17.4998 29.3285 17.8677 29.6816 18.4599L31.7467 21.92C32.4419 23.0854 33.7136 23.8095 35.067 23.8095C38.2436 23.8095 40.5952 20.8291 39.8668 17.7161ZM14.9799 9.92805H13.6414V11.2739C13.6414 11.9244 13.1168 12.4519 12.4695 12.4519C11.8225 12.4519 11.2979 11.9244 11.2979 11.2739V9.92805H9.95946C9.31249 9.92805 8.78789 9.40058 8.78789 8.75006C8.78789 8.09924 9.31249 7.57177 9.95946 7.57177H11.2979V6.22594C11.2979 5.57542 11.8225 5.04795 12.4695 5.04795C13.1168 5.04795 13.6414 5.57542 13.6414 6.22594V7.57177H14.9799C15.6268 7.57177 16.1514 8.09924 16.1514 8.75006C16.1514 9.40058 15.6268 9.92805 14.9799 9.92805ZM25.0201 9.92805C24.3734 9.92805 23.8485 9.40027 23.8485 8.75006C23.8485 8.09955 24.3737 7.57177 25.0201 7.57177C25.6671 7.57177 26.192 8.09955 26.192 8.75006C26.192 9.40027 25.6671 9.92805 25.0201 9.92805ZM27.5305 12.4519C26.8838 12.4519 26.3586 11.9241 26.3586 11.2739C26.3586 10.6237 26.8838 10.0956 27.5305 10.0956C28.1771 10.0956 28.702 10.6237 28.702 11.2739C28.702 11.9241 28.1771 12.4519 27.5305 12.4519ZM27.5305 7.40423C26.8838 7.40423 26.3586 6.87645 26.3586 6.22594C26.3586 5.57573 26.8838 5.04795 27.5305 5.04795C28.1771 5.04795 28.702 5.57573 28.702 6.22594C28.702 6.87645 28.1771 7.40423 27.5305 7.40423ZM30.0405 9.92805C29.3938 9.92805 28.8686 9.40027 28.8686 8.75006C28.8686 8.09955 29.3938 7.57177 30.0405 7.57177C30.6872 7.57177 31.2121 8.09955 31.2121 8.75006C31.2121 9.40027 30.6872 9.92805 30.0405 9.92805Z" fill="white"/>
</svg>
