<svg width="40" height="25" viewBox="0 0 40 25" fill="none" xmlns="http://www.w3.org/2000/svg">
<path d="M18.3805 19.182L7.56757 15.3657V22.7028C7.56757 23.5984 8.29362 24.3244 9.18919 24.3244H30.8108C31.7064 24.3244 32.4324 23.5984 32.4324 22.7028V15.3657L21.6191 19.1823C21.0979 19.3663 20.5531 19.4596 20 19.4596C19.4469 19.4596 18.9021 19.3663 18.3805 19.182Z" fill="white"/>
<path d="M1.08195 9.63738L19.4603 16.1239C19.6349 16.1855 19.8175 16.2163 20 16.2163C20.1825 16.2163 20.3651 16.1855 20.5397 16.1239L36.7568 10.4002V16.7568C36.7568 17.6524 37.4828 18.3785 38.3784 18.3785C39.2739 18.3785 40 17.6524 40 16.7568V8.10819C40 7.42073 39.5664 6.80786 38.9181 6.579L20.5397 0.0925135C20.1905 -0.0308378 19.8095 -0.0308378 19.4603 0.0925135L1.08195 6.579C0.433622 6.80786 0 7.42073 0 8.10819C0 8.79565 0.433622 9.40851 1.08195 9.63738V9.63738Z" fill="white"/>
</svg>
