<svg width="40" height="40" viewBox="0 0 40 40" fill="none" xmlns="http://www.w3.org/2000/svg">
<path fill-rule="evenodd" clip-rule="evenodd" d="M34.1421 5.85791C30.3646 2.08032 25.3422 0 20 0C14.6578 0 9.63541 2.08032 5.85788 5.85791C2.08035 9.63538 0 14.6578 0 20.0001C0 23.938 1.13965 27.7362 3.29907 31.0057L0.85498 38.3374C0.778564 38.5668 0.838226 38.8197 1.00919 38.9907C1.18018 39.1616 1.43292 39.2212 1.66248 39.1449L8.99438 36.701C12.264 38.8604 16.062 40 20 40C25.3422 40 30.3646 37.9197 34.1421 34.1421C37.9197 30.3646 40 25.3422 40 20.0001C40 14.6578 37.9197 9.63538 34.1421 5.85791ZM30.2527 19.3617H36.8085C37.1611 19.3617 37.4468 19.6473 37.4468 20C37.4468 20.3525 37.1611 20.6382 36.8085 20.6382H30.2527C30.2007 23.8245 29.7606 26.9034 28.9956 29.6334H33.2951C33.6477 29.6334 33.9334 29.9192 33.9334 30.2717C33.9334 30.6244 33.6477 30.91 33.2951 30.91H28.6047C27.9221 32.967 27.0455 34.7849 26.0038 36.2434C25.8792 36.4177 25.6831 36.5107 25.4838 36.5107C25.3554 36.5107 25.2258 36.4722 25.1134 36.3918C24.8266 36.1869 24.7601 35.7883 24.965 35.5013C25.8689 34.236 26.641 32.6757 27.2604 30.9102H20.6383V36.8086C20.6383 37.1611 20.3526 37.4469 20 37.4469C19.6474 37.4469 19.3617 37.1611 19.3617 36.8086V30.9103H12.7396C13.3591 32.6757 14.1312 34.2361 15.0351 35.5015C15.2399 35.7883 15.1734 36.187 14.8867 36.392C14.7741 36.4722 14.6445 36.5109 14.5162 36.5109C14.317 36.5109 14.1208 36.4178 13.9962 36.2434C12.9545 34.7849 12.0778 32.967 11.3953 30.9102H6.70493C6.35236 30.9102 6.06665 30.6245 6.06665 30.2719C6.06665 29.9193 6.35236 29.6335 6.70493 29.6335H11.0044C10.2394 26.9036 9.79932 23.8246 9.74731 20.6383H3.1915C2.8389 20.6383 2.55319 20.3527 2.55319 20C2.55319 19.6475 2.8389 19.3617 3.1915 19.3617H9.74722C9.79932 16.1755 10.2394 13.0966 11.0043 10.3665H6.70493C6.35236 10.3665 6.06665 10.0808 6.06665 9.72815C6.06665 9.37561 6.35236 9.08984 6.70493 9.08984H11.3953C12.0777 7.03345 12.9541 5.21582 13.9956 3.75745C14.2004 3.4707 14.599 3.40417 14.886 3.60901C15.1729 3.81384 15.2393 4.21252 15.0345 4.49939C14.1308 5.76477 13.3589 7.32483 12.7396 9.08984H19.3617V3.19153C19.3617 2.83887 19.6474 2.55322 20 2.55322C20.3526 2.55322 20.6383 2.83887 20.6383 3.19153V9.08984H27.2603C26.641 7.32483 25.8691 5.76477 24.9655 4.49939C24.7606 4.21252 24.8271 3.81384 25.114 3.60901C25.4007 3.40405 25.7994 3.47058 26.0043 3.75745C27.0458 5.21582 27.9222 7.03333 28.6046 9.08984H33.295C33.6476 9.08984 33.9333 9.37561 33.9333 9.72815C33.9333 10.0808 33.6476 10.3665 33.295 10.3665H28.9956C29.7606 13.0966 30.2007 16.1755 30.2527 19.3617ZM28.9758 19.3617C28.9221 16.1501 28.4641 13.0629 27.6715 10.3665H20.6383V19.3617H28.9758ZM19.3617 10.3665H12.3285C11.5359 13.0629 11.078 16.15 11.0242 19.3617H19.3617V10.3665ZM11.0242 20.6383C11.0779 23.8499 11.5359 26.9371 12.3285 29.6335H19.3617V20.6383H11.0242ZM20.6383 29.6335H27.6715C28.4641 26.9373 28.9221 23.85 28.9758 20.6383H20.6383V29.6335Z" fill="white"/>
</svg>
