<svg width="51" height="62" viewBox="0 0 51 62" fill="none" xmlns="http://www.w3.org/2000/svg">
<path d="M0.816406 43.3121C0.816406 46.8128 3.65412 49.6502 7.15447 49.6502H43.6327C47.1336 49.6502 49.971 46.8125 49.971 43.3121V6.83385C49.971 3.33292 47.1333 0.495605 43.6329 0.495605H7.15467C3.65375 0.495605 0.816406 3.33332 0.816406 6.83365V43.3119V43.3121Z" fill="#563D7C"/>
<path d="M21.1998 22.2383V15.2774H27.327C27.9107 15.2774 28.4733 15.326 29.0151 15.4233C29.557 15.5205 30.0364 15.6941 30.4533 15.9442C30.87 16.1944 31.2035 16.5418 31.4537 16.9863C31.7037 17.431 31.8289 18.0007 31.8289 18.6952C31.8289 19.9458 31.4537 20.849 30.7033 21.4046C29.9532 21.9605 28.9944 22.2383 27.8272 22.2383H21.1998ZM14.6555 10.192V39.9536H29.0778C30.4117 39.9536 31.7108 39.7869 32.9752 39.4534C34.2396 39.1199 35.365 38.6059 36.3515 37.9112C37.3379 37.2165 38.123 36.3202 38.7065 35.2227C39.2902 34.1249 39.5819 32.8258 39.5819 31.3252C39.5819 29.4633 39.1303 27.8725 38.2273 26.5526C37.324 25.2325 35.9554 24.3086 34.1213 23.7806C35.4552 23.1416 36.4627 22.3217 37.1436 21.3213C37.8242 20.321 38.1647 19.0706 38.1647 17.5698C38.1647 16.1805 37.9354 15.0134 37.4769 14.0685C37.0184 13.1238 36.3723 12.3666 35.5386 11.7969C34.705 11.2272 33.7047 10.8172 32.5374 10.5672C31.3704 10.317 30.0782 10.1921 28.661 10.1921L14.6555 10.192ZM21.1998 34.8682V26.6983H28.3274C29.7446 26.6983 30.884 27.0248 31.7455 27.678C32.6069 28.331 33.0378 29.4216 33.0378 30.95C33.0378 31.7282 32.9057 32.3672 32.6417 32.8674C32.3777 33.3676 32.0234 33.7637 31.5787 34.0554C31.1342 34.3473 30.62 34.5556 30.0365 34.6808C29.4528 34.8056 28.8416 34.8682 28.2024 34.8682H21.1998Z" fill="white"/>
<path d="M0.898803 51.915C0.939149 51.9076 0.97222 51.8962 1.00517 51.8962C2.36495 51.9015 3.7248 51.8995 5.08441 51.9185C5.54778 51.9249 5.97356 52.0884 6.35421 52.3593C7.22313 52.9776 7.30339 54.744 6.11056 55.3776C6.04987 55.4098 5.98945 55.4424 5.90702 55.4864C6.1337 55.5905 6.35673 55.6602 6.54365 55.7844C7.26111 56.261 7.55333 57.3274 7.23215 58.2641C6.95187 59.0813 6.28642 59.4188 5.51255 59.5982C5.25838 59.6572 4.99222 59.6878 4.73117 59.6897C3.46009 59.6989 2.18889 59.6938 0.898665 59.6938C0.898803 57.1038 0.898803 54.5135 0.898803 51.915ZM2.25826 58.5538C3.20364 58.5538 4.12175 58.5753 5.03815 58.546C5.61424 58.5276 6.03052 57.9101 5.99584 57.3095C5.9617 56.7175 5.59713 56.214 5.03363 56.1877C4.12513 56.1452 3.21414 56.1572 2.30415 56.1478C2.29058 56.1477 2.27676 56.1677 2.25822 56.1821L2.25826 58.5538ZM2.26143 55.1343C3.10641 55.1343 3.9213 55.1651 4.73258 55.1241C5.33003 55.0939 5.66723 54.6162 5.64487 53.9632C5.62507 53.385 5.28368 53.0373 4.66906 53.021C3.89845 53.0008 3.12696 53.0102 2.35578 53.0084C2.32442 53.0083 2.29302 53.0252 2.26143 53.0342V55.1343V55.1343ZM44.3981 54.0657H45.5316V54.6731C45.6578 54.5758 45.8115 54.4678 45.9533 54.346C46.8217 53.6006 48.8817 53.6921 49.5867 55.1931C50.1934 56.4849 50.167 57.784 49.3481 58.9867C48.8945 59.6528 48.1921 59.8909 47.3966 59.8481C46.7053 59.8108 46.0967 59.5935 45.6178 58.9535V61.7861H44.3982C44.3981 59.2103 44.3981 56.6453 44.3981 54.0657ZM45.5496 56.9102C45.6006 57.1931 45.6287 57.4828 45.7076 57.7577C45.8839 58.3712 46.4204 58.8249 46.9762 58.8641C47.7197 58.9166 48.2536 58.6419 48.5223 57.9828C48.8638 57.1451 48.8517 56.3004 48.3526 55.5175C47.7638 54.5941 46.3529 54.6712 45.854 55.6386C45.6486 56.0369 45.5481 56.456 45.5496 56.9102ZM43.5951 58.888C43.5951 59.1195 43.6033 59.3546 43.5891 59.5885C43.5857 59.6463 43.5133 59.7438 43.4664 59.7478C43.1129 59.7773 42.7536 59.8288 42.4046 59.7924C42.0969 59.7603 41.9273 59.4995 41.8325 59.1979C41.1021 59.7925 40.2645 59.9211 39.3736 59.8108C38.6284 59.7185 38.0112 59.1067 37.9582 58.4274C37.8849 57.4912 38.2446 56.8815 39.0852 56.6596C39.6748 56.504 40.2889 56.4415 40.8918 56.3364C41.0381 56.3109 41.1861 56.2901 41.3289 56.2511C41.6033 56.1762 41.8012 56.0243 41.8213 55.712C41.8421 55.3891 41.7169 55.1376 41.4135 55.0154C40.8956 54.807 40.3684 54.8122 39.8585 55.0508C39.6259 55.1596 39.4877 55.3786 39.3658 55.7505H38.1711C38.1721 55.2951 38.3306 54.9122 38.6331 54.59C39.0328 54.1642 39.5537 53.9971 40.1147 53.9384C40.7019 53.877 41.2858 53.8797 41.8563 54.0721C42.6235 54.3307 42.9909 54.8369 42.9898 55.6472C42.9887 56.5074 42.9894 57.3676 42.9893 58.2278C42.9891 58.8383 42.989 58.8383 43.5951 58.888ZM41.7486 56.947C41.372 57.0122 41.0275 57.0622 40.6875 57.1333C40.3299 57.2081 39.9655 57.2729 39.6245 57.3978C39.2902 57.5203 39.1766 57.8327 39.1877 58.1682C39.1982 58.4889 39.4173 58.6687 39.6997 58.7674C40.184 58.9366 40.6695 58.9157 41.1314 58.6997C41.4622 58.5449 41.7141 58.2919 41.7437 57.9053C41.7681 57.5833 41.7486 57.2579 41.7486 56.947ZM11.0064 53.9031C12.88 53.8811 13.9788 55.2545 13.8629 57.1247C13.8227 57.7747 13.648 58.3822 13.2202 58.8959C12.7591 59.4494 12.1659 59.7409 11.4546 59.82C10.8607 59.8862 10.2836 59.8473 9.73333 59.5975C8.91383 59.2255 8.44635 58.5762 8.24971 57.7112C8.11489 57.1182 8.12077 56.5278 8.27195 55.9413C8.60543 54.6475 9.60171 53.9082 11.0064 53.9031ZM9.37531 56.8875C9.4245 57.162 9.4502 57.4434 9.52741 57.7097C9.72397 58.3879 10.2593 58.8358 10.8713 58.8654C11.6278 58.9021 12.1571 58.5839 12.4383 57.8792C12.7128 57.1913 12.7132 56.4872 12.4122 55.8076C11.9663 54.8007 10.7515 54.5433 9.96929 55.2917C9.52323 55.7184 9.40809 56.2854 9.37531 56.8875ZM17.5071 53.9032C19.1971 53.9005 20.347 55.0394 20.3683 56.7332C20.3774 57.4485 20.2609 58.1305 19.841 58.7296C19.24 59.5874 18.3719 59.8875 17.3725 59.842C17.0042 59.8252 16.6225 59.7434 16.2793 59.6087C15.4735 59.2924 14.993 58.6696 14.7795 57.836C14.5921 57.104 14.613 56.3767 14.8514 55.6612C15.217 54.5638 16.22 53.9051 17.5071 53.9032ZM19.127 56.7354C19.0997 56.5851 19.0728 56.2949 18.9918 56.0205C18.7859 55.3226 18.2418 54.899 17.5563 54.8692C16.9107 54.8411 16.33 55.2217 16.0796 55.8884C15.7847 56.6737 15.8064 57.4558 16.2508 58.1875C16.7137 58.9497 17.7632 59.1167 18.4514 58.548C18.9766 58.1141 19.105 57.515 19.127 56.7354ZM29.5757 55.6303C29.1901 55.6303 28.8145 55.6335 28.4392 55.6263C28.393 55.6254 28.321 55.5791 28.3061 55.5376C28.0951 54.9514 27.5985 54.8817 27.085 54.8788C26.872 54.8775 26.6455 54.9293 26.4483 55.012C26.0269 55.1888 25.9801 55.6655 26.375 55.8939C26.649 56.0523 26.9706 56.1374 27.2796 56.2244C27.7168 56.3476 28.1682 56.4217 28.6026 56.553C29.7133 56.8887 30.1474 58.0023 29.5255 58.9203C29.2272 59.3606 28.7811 59.5989 28.2695 59.7223C27.5135 59.9048 26.7608 59.9182 26.022 59.6514C25.2314 59.3657 24.8139 58.7925 24.7522 57.9249H25.9585C26.3014 58.8201 27.2706 59.1688 28.1785 58.7113C28.3885 58.6054 28.5288 58.4548 28.5428 58.2073C28.5578 57.9427 28.4556 57.7152 28.2181 57.6267C27.7949 57.4688 27.3528 57.3606 26.9182 57.2331C26.5582 57.1276 26.1869 57.0513 25.8396 56.9139C25.1695 56.6485 24.8784 56.192 24.8825 55.496C24.8861 54.8889 25.2409 54.3688 25.8701 54.1407C26.7361 53.8267 27.6199 53.7876 28.4897 54.1283C29.0778 54.3587 29.4283 54.813 29.574 55.4247C29.5872 55.4812 29.5757 55.5437 29.5757 55.6303ZM23.0267 54.05H24.1431V54.9629H23.0491C23.0414 55.0723 23.0314 55.1487 23.0313 55.2252C23.0302 56.1467 23.0298 57.0681 23.0317 57.9895C23.0319 58.1121 23.0414 58.235 23.0535 58.3572C23.0775 58.6008 23.2128 58.7456 23.4581 58.7589C23.6829 58.7713 23.909 58.7616 24.147 58.7616V59.6744C23.6371 59.8006 23.1188 59.7939 22.6171 59.6822C22.0329 59.5521 21.7956 59.1501 21.7905 58.3893C21.7834 57.3538 21.7884 56.3182 21.7882 55.2826V54.9782H20.8609V54.0548H21.7757V52.364H23.0268C23.0267 52.9171 23.0267 53.4661 23.0267 54.05ZM33.4681 59.7096C32.9877 59.7096 32.533 59.7245 32.0797 59.7053C31.6404 59.6866 31.3021 59.3953 31.2061 58.9605C31.1514 58.7125 31.1224 58.4595 31.1196 58.2056C31.1099 57.2314 31.1156 56.2569 31.1156 55.2825V54.9744H30.1914V54.0633H31.1019V52.3656H32.3554V54.0358H33.4665V54.9535H32.4003C32.3876 55.0362 32.371 55.0934 32.371 55.1507C32.3701 56.1426 32.3669 57.1346 32.3733 58.1264C32.3768 58.651 32.5141 58.7773 33.034 58.7735C33.1729 58.7726 33.312 58.7734 33.4682 58.7734L33.4681 59.7096ZM35.5532 54.0688V55.0294C36.0346 54.2121 36.7008 53.7862 37.6847 53.9314V55.1164C37.2173 55.0461 36.7665 55.0336 36.3672 55.3205C35.8435 55.697 35.6606 56.2471 35.6476 56.8536C35.6275 57.7911 35.6423 58.7294 35.6423 59.6878H34.4146V54.0688C34.7865 54.0688 35.1506 54.0688 35.5532 54.0688Z" fill="#573E7D"/>
</svg>
