<svg width="44" height="62" viewBox="0 0 44 62" fill="none" xmlns="http://www.w3.org/2000/svg">
<path d="M39.7531 57.0001L21.9783 61.7861L4.2033 57.0001L0.101608 12.5632H43.8553L39.7531 57.0001Z" fill="#2062AF"/>
<path d="M21.9736 16.267V58.0733L22.0138 58.0843L36.3981 54.2109L39.7183 16.267H21.9736V16.267Z" fill="#3C9CD7"/>
<path d="M11.8904 6.03445V3.38958H15.7493V0.495483H8.99628V8.67545H15.7493V6.03448H11.8904V6.03445ZM22.691 3.38958H25.3888V0.495483H18.6352V3.38958C19.5387 4.29313 20.01 4.7256 21.3167 6.03237C20.5528 6.03237 18.6352 6.03513 18.6352 6.03499V8.67545H25.3888V6.03448L22.691 3.38958ZM32.263 3.38958H34.9607V0.495483H28.2068V3.38958C29.1104 4.29313 29.5819 4.7256 30.8887 6.03237C30.125 6.03237 28.2068 6.03513 28.2068 6.03499V8.67545H34.9609V6.03448L32.263 3.38958Z" fill="black"/>
<path d="M21.9624 27.2736L9.24045 32.5719L9.66234 37.8178L21.9624 32.5587L35.0465 26.9646L35.589 21.5984L21.9624 27.2736Z" fill="white"/>
<path d="M9.2403 32.5719L9.66219 37.8177L21.9623 32.5586V27.2736L9.2403 32.5719Z" fill="url(#paint0_linear)"/>
<path d="M35.589 21.5984L21.9624 27.2735V32.5585L35.0465 26.9645L35.589 21.5984Z" fill="url(#paint1_linear)"/>
<path d="M9.25987 32.5718L9.68191 37.8176L28.5547 37.8777L28.1326 44.872L21.9223 46.6204L15.9524 45.113L15.5907 40.7717H10.0436L10.7672 49.1528L21.9826 52.4689L33.1372 49.213L34.5844 32.5718H9.25987Z" fill="url(#paint2_linear)"/>
<path opacity="0.05" d="M21.9624 32.5718H9.24045L9.66234 37.8176L21.9624 37.8568V32.5718ZM21.9624 46.6037L21.9021 46.6205L15.933 45.1132L15.5713 40.7718H10.0244L10.7478 49.1529L21.9624 52.4691V46.6037Z" fill="black"/>
<path d="M8.09471 21.5984H35.589L35.0465 26.9646H8.7579L8.09471 21.5984Z" fill="url(#paint3_linear)"/>
<path opacity="0.05" d="M21.9624 21.5984H8.09471L8.7579 26.9646H21.9624V21.5984Z" fill="black"/>
<defs>
<linearGradient id="paint0_linear" x1="15.6013" y1="37.8176" x2="15.6013" y2="27.2735" gradientUnits="userSpaceOnUse">
<stop offset="0.387" stop-color="#D1D3D4" stop-opacity="0"/>
<stop offset="1" stop-color="#D1D3D4"/>
</linearGradient>
<linearGradient id="paint1_linear" x1="28.7757" y1="32.5585" x2="28.7757" y2="21.5983" gradientUnits="userSpaceOnUse">
<stop offset="0.387" stop-color="#D1D3D4" stop-opacity="0"/>
<stop offset="1" stop-color="#D1D3D4"/>
</linearGradient>
<linearGradient id="paint2_linear" x1="9.25983" y1="42.5203" x2="34.5844" y2="42.5203" gradientUnits="userSpaceOnUse">
<stop stop-color="#E8E7E5"/>
<stop offset="1" stop-color="white"/>
</linearGradient>
<linearGradient id="paint3_linear" x1="8.09469" y1="24.2815" x2="35.5889" y2="24.2815" gradientUnits="userSpaceOnUse">
<stop stop-color="#E8E7E5"/>
<stop offset="1" stop-color="white"/>
</linearGradient>
</defs>
</svg>
