<svg width="67" height="62" viewBox="0 0 67 62" fill="none" xmlns="http://www.w3.org/2000/svg">
<g clip-path="url(#clip0)">
<path d="M41.9474 29.1344L15.7516 24.5376V58.5033C15.7516 60.0545 17.0161 61.3119 18.5761 61.3119H63.7778C65.3377 61.3119 66.6023 60.0545 66.6023 58.5033V45.9893L41.9474 29.1344Z" fill="#185C37"/>
<path d="M41.9474 0.0213623H18.5761C17.0161 0.0213623 15.7516 1.27883 15.7516 2.82999V15.344L41.9474 30.6666L55.8158 35.2634L66.6023 30.6666V15.344L41.9474 0.0213623Z" fill="#21A366"/>
<path d="M15.7516 15.344H41.9474V30.6666H15.7516V15.344Z" fill="#107C41"/>
<path opacity="0.1" d="M34.5001 12.2795H15.7516V50.5861H34.5001C36.0579 50.5811 37.3195 49.3266 37.3246 47.7775V15.0882C37.3195 13.5391 36.0579 12.2846 34.5001 12.2795Z" fill="black"/>
<path opacity="0.2" d="M32.9592 13.8118H15.7516V52.1184H32.9592C34.517 52.1133 35.7786 50.8588 35.7837 49.3097V16.6204C35.7786 15.0713 34.517 13.8168 32.9592 13.8118Z" fill="black"/>
<path opacity="0.2" d="M32.9592 13.8118H15.7516V49.0538H32.9592C34.517 49.0488 35.7786 47.7943 35.7837 46.2452V16.6204C35.7786 15.0713 34.517 13.8168 32.9592 13.8118Z" fill="black"/>
<path opacity="0.2" d="M31.4182 13.8118H15.7516V49.0538H31.4182C32.9761 49.0488 34.2377 47.7943 34.2427 46.2452V16.6204C34.2377 15.0713 32.9761 13.8168 31.4182 13.8118Z" fill="black"/>
<path d="M3.16676 13.8118H31.4182C32.9781 13.8118 34.2427 15.0692 34.2427 16.6204V44.7129C34.2427 46.2641 32.9781 47.5215 31.4182 47.5215H3.16676C1.60682 47.5216 0.342239 46.2641 0.342239 44.7129V16.6204C0.342239 15.0692 1.60682 13.8118 3.16676 13.8118Z" fill="url(#paint0_linear)"/>
<path d="M9.09012 39.7959L15.0319 30.6406L9.58785 21.5359H13.9672L16.9381 27.3585C17.2124 27.9116 17.4004 28.3223 17.5021 28.5935H17.5406C17.7358 28.1522 17.9412 27.7237 18.157 27.3079L21.3328 21.539H25.3531L19.7703 30.5901L25.4949 39.7959H21.2173L17.7856 33.4048C17.624 33.1329 17.4868 32.8473 17.3757 32.5514H17.3249C17.2244 32.8413 17.091 33.1189 16.9273 33.3788L13.394 39.7959H9.09012Z" fill="white"/>
<path d="M63.7778 0.0213623H41.9474V15.344H66.6023V2.82999C66.6023 1.27883 65.3378 0.0213623 63.7778 0.0213623Z" fill="#33C481"/>
<path d="M41.9474 30.6666H66.6023V45.9893H41.9474V30.6666Z" fill="#107C41"/>
</g>
<defs>
<linearGradient id="paint0_linear" x1="6.23144" y1="11.6172" x2="28.1669" y2="49.8233" gradientUnits="userSpaceOnUse">
<stop stop-color="#18884F"/>
<stop offset="0.5" stop-color="#117E43"/>
<stop offset="1" stop-color="#0B6631"/>
</linearGradient>
<clipPath id="clip0">
<rect width="66.2601" height="61.2906" fill="white" transform="translate(0.342255 0.0213623)"/>
</clipPath>
</defs>
</svg>
