<svg width="63" height="62" viewBox="0 0 63 62" fill="none" xmlns="http://www.w3.org/2000/svg">
<g clip-path="url(#clip0)">
<path d="M62.0339 53.7152C62.0339 58.1543 58.402 61.7862 53.963 61.7862H8.81386C4.37516 61.7862 0.743317 58.1543 0.743317 53.7152V8.56615C0.743317 4.12744 4.37516 0.495605 8.81386 0.495605H53.963C58.402 0.495605 62.0339 4.12744 62.0339 8.56615V53.7152Z" fill="#353535"/>
<path d="M24.9938 50.4312C28.5292 50.4312 31.3983 47.5617 31.3983 44.0263V37.6222H24.9938C21.4584 37.6222 18.5893 40.4916 18.5893 44.0267C18.5893 47.5617 21.4584 50.4312 24.9938 50.4312Z" fill="#0ACF83"/>
<path d="M18.5893 31.2177C18.5893 27.6823 21.4584 24.8132 24.9938 24.8132H31.3983V37.6222H24.9938C21.4584 37.6222 18.5893 34.7528 18.5893 31.2177Z" fill="#A259FF"/>
<path d="M18.5893 18.409C18.5893 14.874 21.4584 12.0045 24.9938 12.0045H31.3983V24.8139H24.9938C21.4584 24.8135 18.5893 21.9444 18.5893 18.409Z" fill="#F24E1E"/>
<path d="M31.3983 12.0035H37.8032C41.3386 12.0035 44.2077 14.873 44.2077 18.408C44.2077 21.9434 41.3386 24.8129 37.8032 24.8129H31.3983V12.0035Z" fill="#FF7262"/>
<path d="M44.2077 31.2177C44.2077 34.7528 41.3386 37.6222 37.8032 37.6222C34.2678 37.6222 31.3983 34.7528 31.3983 31.2177C31.3983 27.6823 34.2678 24.8132 37.8032 24.8132C41.3386 24.8132 44.2077 27.6823 44.2077 31.2177Z" fill="#1ABCFE"/>
</g>
<defs>
<clipPath id="clip0">
<rect width="61.2906" height="61.2906" fill="white" transform="translate(0.743317 0.495605)"/>
</clipPath>
</defs>
</svg>
