<svg width="62" height="63" viewBox="0 0 62 63" fill="none" xmlns="http://www.w3.org/2000/svg">
<g clip-path="url(#clip0)">
<path fill-rule="evenodd" clip-rule="evenodd" d="M30.8826 0.778931C13.9598 0.778931 0.237091 14.8459 0.237091 32.1998C0.237091 46.083 9.01797 57.8601 21.1944 62.0159C22.7259 62.3068 23.2882 61.3337 23.2882 60.5038C23.2882 59.7551 23.2598 57.2794 23.2466 54.6543C14.721 56.5546 12.922 50.947 12.922 50.947C11.528 47.3152 9.51936 46.3494 9.51936 46.3494C6.73889 44.3993 9.72894 44.4388 9.72894 44.4388C12.8058 44.6605 14.4267 47.6778 14.4267 47.6778C17.1599 52.4804 21.5958 51.0922 23.3446 50.2899C23.6196 48.2596 24.4133 46.8724 25.2902 46.0877C18.4834 45.2942 11.3275 42.599 11.3275 30.5597C11.3275 27.1292 12.5246 24.3262 14.4855 22.1258C14.1673 21.3343 13.1184 18.1385 14.7824 13.8105C14.7824 13.8105 17.3558 12.9665 23.2116 17.0318C25.6561 16.3356 28.2777 15.9864 30.8821 15.974C33.486 15.9859 36.1096 16.3351 38.5587 17.0318C44.4084 12.9665 46.9778 13.8105 46.9778 13.8105C48.6458 18.1385 47.5974 21.3343 47.2792 22.1258C49.2437 24.3262 50.4332 27.1292 50.4332 30.5597C50.4332 42.6286 43.264 45.2849 36.44 46.0633C37.5392 47.0378 38.5186 48.9505 38.5186 51.8815C38.5186 56.0858 38.4831 59.4699 38.4831 60.5043C38.4831 61.3405 39.0352 62.3203 40.5881 62.0122C52.7574 57.8528 61.5276 46.0784 61.5276 32.2003C61.5276 14.8459 47.807 0.778931 30.8826 0.778931Z" fill="#231E1B"/>
<path d="M11.8441 45.8931C11.7766 46.0498 11.5371 46.0966 11.3189 45.9889C11.0966 45.8864 10.9718 45.6741 11.0438 45.5175C11.1098 45.3567 11.3498 45.3119 11.5716 45.4191C11.7939 45.5211 11.9207 45.7365 11.8441 45.8931Z" fill="#231E1B"/>
<path d="M13.0854 47.3126C12.9393 47.451 12.653 47.387 12.4597 47.1674C12.2587 46.9478 12.2217 46.6554 12.3699 46.5139C12.5206 46.3755 12.7977 46.4405 12.9981 46.6591C13.1991 46.8807 13.2382 47.1716 13.0854 47.3126Z" fill="#231E1B"/>
<path d="M14.2937 49.1218C14.1059 49.256 13.7984 49.1312 13.6086 48.8512C13.4208 48.5718 13.4208 48.2362 13.6131 48.1025C13.8029 47.9682 14.1059 48.0895 14.2982 48.3658C14.4855 48.6499 14.4855 48.9855 14.2937 49.1218Z" fill="#231E1B"/>
<path d="M15.9491 50.8705C15.7811 51.0605 15.4234 51.009 15.1615 50.7498C14.8935 50.497 14.8189 50.1369 14.9869 49.947C15.1574 49.757 15.5172 49.8106 15.7806 50.0677C16.047 50.3206 16.1277 50.6827 15.9491 50.8705Z" fill="#231E1B"/>
<path d="M18.2327 51.8858C18.1586 52.1319 17.8141 52.2438 17.4669 52.1387C17.1198 52.0309 16.8935 51.7422 16.9635 51.4945C17.0356 51.2463 17.3817 51.1297 17.7313 51.2416C18.0774 51.3493 18.3048 51.635 18.2327 51.8858Z" fill="#231E1B"/>
<path d="M20.7407 52.0741C20.7493 52.3332 20.455 52.5476 20.0906 52.5528C19.7242 52.5611 19.4273 52.3514 19.4238 52.0964C19.4238 51.8342 19.7115 51.6219 20.0779 51.6157C20.4418 51.6084 20.7407 51.8165 20.7407 52.0741Z" fill="#231E1B"/>
<path d="M23.0746 51.6661C23.1182 51.919 22.865 52.1781 22.5032 52.2473C22.1474 52.3144 21.8181 52.1578 21.7729 51.9081C21.7287 51.6489 21.9865 51.3888 22.3418 51.3216C22.7036 51.2576 23.0284 51.4091 23.0746 51.6661Z" fill="#231E1B"/>
</g>
<defs>
<clipPath id="clip0">
<rect width="61.2906" height="61.2906" fill="white" transform="translate(0.237091 0.778931)"/>
</clipPath>
</defs>
</svg>
