<svg width="44" height="62" viewBox="0 0 44 62" fill="none" xmlns="http://www.w3.org/2000/svg">
<path d="M43.4223 12.5406L39.4664 56.8565L21.6846 61.7861L3.9518 56.8633L0 12.5406H43.4223Z" fill="#E44D26"/>
<path d="M21.7111 58.0181L36.0797 54.0347L39.4601 16.1647H21.7111V58.0181Z" fill="#F16529"/>
<path d="M14.021 27.0368H21.7111V21.6008H8.08022L8.21026 23.0592L9.54639 38.0394H21.7111V32.6034H14.5179L14.021 27.0368ZM15.2462 40.7575H9.78929L10.5508 49.2928L21.6861 52.3838L21.7111 52.377V46.7213L21.6873 46.7276L15.6333 45.0929L15.2462 40.7575Z" fill="#EBEBEB"/>
<path d="M4.03995 0.495483H6.80245V3.22481H9.32955V0.495483H12.0922V8.76053H9.32974V5.99294H6.80265V8.76056H4.04012V0.495483H4.03995ZM15.7248 3.23636H13.2932V0.495483H20.921V3.23638H18.4879V8.76056H15.7254V3.23636H15.7252H15.7248ZM22.1316 0.495483H25.012L26.7839 3.39961L28.5541 0.495483H31.4357V8.76053H28.6845V4.66392L26.7839 7.60257H26.7363L24.8345 4.66392V8.76053H22.1316V0.495483ZM32.8105 0.495483H35.5739V6.02868H39.4588V8.76053H32.8104V0.495483H32.8105Z" fill="black"/>
<path d="M21.6924 38.0394H28.3863L27.7551 45.0895L21.6922 46.7259V52.3813L32.8364 49.2928L32.9181 48.3744L34.1957 34.0631L34.3283 32.6034H21.6924V38.0394ZM21.6924 27.0236V27.0368H34.8229L34.9319 25.8151L35.1797 23.0592L35.3095 21.6008H21.6924V27.0237V27.0236Z" fill="white"/>
</svg>
