<svg width="69" height="70" viewBox="0 0 69 70" fill="none" xmlns="http://www.w3.org/2000/svg">
<g filter="url(#filter0_d)">
<g clip-path="url(#clip0)">
<rect x="3.82031" y="2.73792" width="61.2906" height="61.2906" fill="#330000"/>
<path d="M33.7034 40.0493H24.3491L22.4381 46.2973C22.4122 46.4051 22.3495 46.5004 22.2608 46.567C22.1721 46.6335 22.063 46.667 21.9523 46.6617H17.2142C16.9443 46.6617 16.8497 46.5132 16.9304 46.2163L25.0061 22.8933C25.0873 22.6504 25.1682 22.3736 25.2487 22.0631C25.36 21.6098 25.4145 21.1445 25.4112 20.6779C25.4057 20.6394 25.4092 20.6001 25.4215 20.5633C25.4338 20.5264 25.4545 20.4928 25.482 20.4653C25.5094 20.4378 25.5429 20.4171 25.5798 20.4048C25.6167 20.3925 25.6559 20.3889 25.6944 20.3944H32.133C32.3216 20.3944 32.4301 20.4622 32.4569 20.5969L41.6737 46.2566C41.7544 46.5271 41.6733 46.6621 41.4305 46.6617H36.166C36.0756 46.6717 35.9846 46.6485 35.91 46.5963C35.8355 46.5442 35.7825 46.4667 35.7609 46.3783L33.7034 40.0493ZM25.7549 35.7398H32.6089C32.447 35.2 31.89 33.9525 31.6741 33.2772C31.4576 32.6028 31.1614 32.0656 30.9182 31.2961C30.6751 30.5268 30.4321 29.7574 30.1893 28.988C29.9462 28.2184 29.7235 27.4759 29.5213 26.7605C29.3188 26.0455 29.1365 25.3908 28.9746 24.7966H28.934C28.7063 25.8904 28.4223 26.9717 28.0832 28.0362C27.7048 29.2512 27.3202 30.4931 26.9294 31.7619C26.5377 33.031 26.1322 34.6603 25.7549 35.7398Z" fill="#FF9A00"/>
<path d="M47.151 24.6221C46.7379 24.6387 46.326 24.5679 45.9422 24.4144C45.5584 24.2608 45.2113 24.0281 44.9236 23.7312C44.6367 23.4215 44.4138 23.0581 44.2678 22.662C44.1218 22.2658 44.0555 21.8447 44.0728 21.4228C44.0581 21.0052 44.1318 20.5891 44.2889 20.2019C44.446 19.8146 44.683 19.4648 44.9845 19.1754C45.2829 18.8889 45.6352 18.6645 46.0209 18.515C46.4066 18.3656 46.8182 18.2942 47.2317 18.3048C47.6527 18.2817 48.0739 18.3472 48.468 18.4972C48.8621 18.6471 49.2203 18.8782 49.5195 19.1754C49.799 19.4769 50.0162 19.8307 50.1587 20.2163C50.3013 20.602 50.3662 21.012 50.35 21.4228C50.3669 21.8464 50.2985 22.2689 50.1488 22.6655C49.9992 23.0621 49.7714 23.4245 49.4789 23.7312C49.1734 24.0324 48.8089 24.2671 48.4082 24.4204C48.0076 24.5738 47.5795 24.6425 47.151 24.6221ZM44.529 46.2589V27.7441C44.529 27.5009 44.6364 27.3796 44.8534 27.3796H49.4547C49.6706 27.3796 49.7785 27.5011 49.7785 27.7441V46.2589C49.7785 46.5293 49.6706 46.6644 49.4547 46.664H44.8935C44.6503 46.664 44.5288 46.529 44.529 46.2589Z" fill="#FF9A00"/>
</g>
</g>
<defs>
<filter id="filter0_d" x="0.183336" y="0.919427" width="68.5645" height="68.5645" filterUnits="userSpaceOnUse" color-interpolation-filters="sRGB">
<feFlood flood-opacity="0" result="BackgroundImageFix"/>
<feColorMatrix in="SourceAlpha" type="matrix" values="0 0 0 0 0 0 0 0 0 0 0 0 0 0 0 0 0 0 127 0"/>
<feOffset dy="1.81849"/>
<feGaussianBlur stdDeviation="1.81849"/>
<feColorMatrix type="matrix" values="0 0 0 0 0 0 0 0 0 0 0 0 0 0 0 0 0 0 0.3 0"/>
<feBlend mode="normal" in2="BackgroundImageFix" result="effect1_dropShadow"/>
<feBlend mode="normal" in="SourceGraphic" in2="effect1_dropShadow" result="shape"/>
</filter>
<clipPath id="clip0">
<path d="M3.82031 13.6488C3.82031 7.62291 8.7053 2.73792 14.7312 2.73792H54.1999C60.2259 2.73792 65.1109 7.6229 65.1109 13.6488V53.1175C65.1109 59.1435 60.2259 64.0285 54.1999 64.0285H14.7312C8.7053 64.0285 3.82031 59.1435 3.82031 53.1175V13.6488Z" fill="white"/>
</clipPath>
</defs>
</svg>
