<svg width="69" height="70" viewBox="0 0 69 70" fill="none" xmlns="http://www.w3.org/2000/svg">
<g filter="url(#filter0_d)">
<g clip-path="url(#clip0)">
<rect x="3.64062" y="2.73792" width="61.2906" height="61.2906" fill="#49021F"/>
<path d="M25.4126 20.8712V46.2493C25.4126 46.5197 25.2911 46.6547 25.0482 46.6544H20.4148C20.1978 46.6544 20.091 46.5197 20.091 46.2493V20.8712C20.091 20.6552 20.2117 20.547 20.4554 20.547H25.0888C25.1328 20.5408 25.1776 20.5448 25.2198 20.5589C25.262 20.573 25.3003 20.5967 25.3317 20.6282C25.3631 20.6596 25.3868 20.6979 25.4008 20.7401C25.4149 20.7823 25.4189 20.8271 25.4126 20.8712Z" fill="#FF3366"/>
<path d="M40.4498 47.204C38.5859 47.2321 36.7392 46.8447 35.0437 46.07C33.4643 45.3391 32.1442 44.1458 31.2579 42.6481C30.2836 40.8999 29.8073 38.918 29.8807 36.9179C29.8656 35.0593 30.3406 33.2296 31.2579 31.6131C32.2025 29.9663 33.592 28.619 35.267 27.7255C37.2269 26.7047 39.4156 26.2028 41.6244 26.2677C41.7591 26.2677 41.9345 26.2744 42.1508 26.288C42.3668 26.3019 42.8397 26.3222 43.1374 26.3486V18.6822C43.1374 18.4938 43.2181 18.399 43.3805 18.399H48.0758C48.1088 18.3943 48.1424 18.3974 48.174 18.4079C48.2056 18.4185 48.2343 18.4363 48.2578 18.4598C48.2813 18.4834 48.2991 18.5121 48.3096 18.5437C48.3201 18.5753 48.3231 18.6089 48.3185 18.6419V42.2634C48.3185 42.7227 48.3388 43.2222 48.3794 43.7618C48.42 44.3021 48.4537 44.788 48.4804 45.2195C48.4855 45.3036 48.4649 45.3874 48.4215 45.4597C48.3782 45.532 48.3139 45.5894 48.2372 45.6245C46.9861 46.1721 45.6783 46.5796 44.3376 46.8395C43.0551 47.0762 41.754 47.1982 40.4498 47.204ZM43.1373 42.1824V31.127C42.8448 31.0691 42.5491 31.0286 42.2518 31.0057C41.976 30.9779 41.699 30.9643 41.4219 30.9651C40.4392 30.9553 39.4681 31.1773 38.5873 31.613C37.6435 32.0627 36.8568 32.7859 36.3296 33.6887C35.8023 34.5915 35.5589 35.632 35.631 36.675C35.6112 37.5577 35.7554 38.4365 36.0564 39.2666C36.3012 39.9355 36.6879 40.5434 37.1899 41.0486C37.671 41.5131 38.2533 41.8595 38.891 42.0608C39.5646 42.279 40.2687 42.3884 40.9768 42.3849C41.3541 42.3849 41.7057 42.3716 42.0296 42.3443C42.4027 42.321 42.7732 42.2669 43.1373 42.1824Z" fill="#FF3366"/>
</g>
</g>
<defs>
<filter id="filter0_d" x="0.00364876" y="0.919427" width="68.5645" height="68.5645" filterUnits="userSpaceOnUse" color-interpolation-filters="sRGB">
<feFlood flood-opacity="0" result="BackgroundImageFix"/>
<feColorMatrix in="SourceAlpha" type="matrix" values="0 0 0 0 0 0 0 0 0 0 0 0 0 0 0 0 0 0 127 0"/>
<feOffset dy="1.81849"/>
<feGaussianBlur stdDeviation="1.81849"/>
<feColorMatrix type="matrix" values="0 0 0 0 0 0 0 0 0 0 0 0 0 0 0 0 0 0 0.3 0"/>
<feBlend mode="normal" in2="BackgroundImageFix" result="effect1_dropShadow"/>
<feBlend mode="normal" in="SourceGraphic" in2="effect1_dropShadow" result="shape"/>
</filter>
<clipPath id="clip0">
<path d="M3.64062 13.6488C3.64062 7.62291 8.52561 2.73792 14.5516 2.73792H54.0202C60.0462 2.73792 64.9312 7.6229 64.9312 13.6488V53.1175C64.9312 59.1435 60.0462 64.0285 54.0203 64.0285H14.5516C8.52562 64.0285 3.64062 59.1435 3.64062 53.1175V13.6488Z" fill="white"/>
</clipPath>
</defs>
</svg>
