<svg width="69" height="69" viewBox="0 0 69 69" fill="none" xmlns="http://www.w3.org/2000/svg">
<g filter="url(#filter0_d)">
<g clip-path="url(#clip0)">
<rect x="4" y="2.73792" width="60.5199" height="60.5199" fill="#001E36"/>
<path d="M17.6841 46.3015V20.4248C17.6841 20.2362 17.7654 20.1413 17.9273 20.1413C18.3586 20.1413 18.8714 20.1346 19.4659 20.121C20.0596 20.1077 20.7009 20.0942 21.3897 20.0807C22.0781 20.0673 22.807 20.0538 23.5765 20.0401C24.3461 20.0267 25.1087 20.02 25.8644 20.0198C27.6236 19.9746 29.3774 20.235 31.0476 20.7893C32.3143 21.2179 33.4696 21.9234 34.4294 22.8546C35.2428 23.6618 35.8714 24.6358 36.272 25.7094C36.6504 26.7545 36.8422 27.8579 36.8385 28.9693C36.915 30.8646 36.3905 32.7355 35.34 34.3147C34.3348 35.7241 32.9215 36.7912 31.2908 37.3721C29.4733 38.0267 27.5528 38.3491 25.6212 38.3239C25.0269 38.3239 24.6087 38.3171 24.3664 38.3036C24.1233 38.2902 23.7588 38.2835 23.273 38.2833V46.261C23.2801 46.3105 23.2755 46.3609 23.2597 46.4084C23.2438 46.4558 23.2172 46.4989 23.1818 46.5342C23.1465 46.5696 23.1034 46.5962 23.056 46.6121C23.0085 46.6279 22.9581 46.6325 22.9086 46.6254H17.9679C17.7787 46.6254 17.6841 46.5174 17.6841 46.3015ZM23.273 25.0007V33.3832C23.6236 33.4105 23.9474 33.424 24.2446 33.4238H25.5806C26.5608 33.4383 27.5374 33.3018 28.476 33.019C29.2786 32.7807 29.9957 32.3168 30.5421 31.6825C31.1073 30.9411 31.3875 30.0214 31.3314 29.0908C31.3528 28.3075 31.149 27.5345 30.7441 26.8637C30.3185 26.215 29.7035 25.713 28.9827 25.4261C28.0414 25.0601 27.0358 24.8878 26.0263 24.9198C25.3786 24.9198 24.805 24.9265 24.3055 24.9401C23.8053 24.954 23.4611 24.9742 23.273 25.0007Z" fill="#31A8FF"/>
<path d="M52.6023 31.7634C51.6628 31.3771 50.6848 31.092 49.6848 30.9132C48.7617 30.7013 47.8178 30.5926 46.8706 30.5891C46.3582 30.5752 45.8465 30.6366 45.3518 30.7713C45.0369 30.8414 44.7571 31.0208 44.562 31.2776C44.4302 31.483 44.3601 31.7219 44.36 31.966C44.3672 32.2028 44.4525 32.4306 44.6026 32.6139C44.8393 32.8907 45.1284 33.1178 45.4534 33.2822C46.0307 33.5931 46.6256 33.8702 47.2351 34.1122C48.5941 34.5673 49.8926 35.186 51.1021 35.9548C51.9261 36.4749 52.6079 37.1915 53.0864 38.0403C53.4888 38.844 53.6903 39.7333 53.6737 40.632C53.6981 41.8187 53.3589 42.9845 52.7016 43.9728C51.9985 44.9764 51.0216 45.7566 49.8874 46.2203C48.4407 46.8009 46.8897 47.0767 45.3315 47.0305C44.1827 47.0421 43.0359 46.9335 41.9097 46.7064C40.9705 46.5412 40.0533 46.2695 39.1757 45.8964C39.0871 45.8507 39.0135 45.7807 38.9633 45.6946C38.9131 45.6086 38.8885 45.51 38.8924 45.4104V41.0371C38.8876 40.9942 38.8944 40.9508 38.9123 40.9116C38.9302 40.8723 38.9584 40.8387 38.994 40.8142C39.0287 40.7946 39.0686 40.7861 39.1083 40.7897C39.148 40.7933 39.1857 40.809 39.2163 40.8345C40.2424 41.4069 41.3482 41.8231 42.497 42.0695C43.4642 42.3121 44.4563 42.4412 45.4534 42.4543C46.1675 42.4988 46.882 42.3739 47.5387 42.0899C47.7399 41.9978 47.9101 41.8493 48.0287 41.6625C48.1473 41.4756 48.2091 41.2584 48.2067 41.0371C48.1895 40.8332 48.1259 40.6359 48.0207 40.4604C47.9154 40.2849 47.7714 40.1358 47.5996 40.0247C46.8334 39.5226 46.0022 39.1275 45.129 38.8503C43.8575 38.4077 42.652 37.7946 41.5452 37.028C40.7536 36.4777 40.1018 35.7497 39.6422 34.9021C39.2435 34.1043 39.0419 33.2224 39.0543 32.3305C39.0522 31.2591 39.3467 30.2079 39.9051 29.2935C40.5417 28.2863 41.456 27.4846 42.5377 26.985C43.7934 26.2985 45.2046 25.9463 46.6357 25.9622C47.7737 25.9028 48.9145 25.9194 50.0504 26.0119C50.9745 26.2 51.8723 26.4995 52.7242 26.904C52.7792 26.9198 52.8297 26.9481 52.8718 26.9868C52.914 27.0255 52.9465 27.0734 52.9668 27.1269C52.9943 27.2257 53.0079 27.3278 53.0075 27.4304V31.5205C53.0102 31.5681 53.0005 31.6156 52.9792 31.6582C52.9579 31.7008 52.9258 31.7371 52.8861 31.7634C52.8437 31.7903 52.7945 31.8045 52.7442 31.8045C52.694 31.8045 52.6448 31.7903 52.6023 31.7634Z" fill="#31A8FF"/>
</g>
</g>
<defs>
<filter id="filter0_d" x="0.363024" y="0.919427" width="68.5645" height="68.5645" filterUnits="userSpaceOnUse" color-interpolation-filters="sRGB">
<feFlood flood-opacity="0" result="BackgroundImageFix"/>
<feColorMatrix in="SourceAlpha" type="matrix" values="0 0 0 0 0 0 0 0 0 0 0 0 0 0 0 0 0 0 127 0"/>
<feOffset dy="1.81849"/>
<feGaussianBlur stdDeviation="1.81849"/>
<feColorMatrix type="matrix" values="0 0 0 0 0 0 0 0 0 0 0 0 0 0 0 0 0 0 0.3 0"/>
<feBlend mode="normal" in2="BackgroundImageFix" result="effect1_dropShadow"/>
<feBlend mode="normal" in="SourceGraphic" in2="effect1_dropShadow" result="shape"/>
</filter>
<clipPath id="clip0">
<path d="M4 13.6488C4 7.62291 8.88499 2.73792 14.9109 2.73792H54.3796C60.4056 2.73792 65.2906 7.6229 65.2906 13.6488V53.1175C65.2906 59.1435 60.4056 64.0285 54.3796 64.0285H14.9109C8.88499 64.0285 4 59.1435 4 53.1175V13.6488Z" fill="white"/>
</clipPath>
</defs>
</svg>
