<svg width="68" height="62" viewBox="0 0 68 62" fill="none" xmlns="http://www.w3.org/2000/svg">
<path d="M41.0197 33.7312L36.3969 0.0213623H36.0517C19.242 0.0701614 5.62731 13.6083 5.57823 30.3234V30.6666L41.0197 33.7312Z" fill="#ED6C47"/>
<path d="M36.742 0.0213623H36.3969V30.6666L51.8062 36.7957L67.2155 30.6666V30.3234C67.1664 13.6083 53.5517 0.0701614 36.742 0.0213623Z" fill="#FF8F6B"/>
<path d="M67.2155 30.6666V31.0037C67.1672 47.7226 53.5493 61.2639 36.7359 61.3119H36.0579C19.2444 61.2639 5.62648 47.7226 5.57823 31.0037V30.6666H67.2155Z" fill="#D35230"/>
<path opacity="0.1" d="M37.9377 15.0835V47.782C37.9301 48.9182 37.2376 49.9389 36.1811 50.3715C35.8447 50.513 35.4831 50.5859 35.1178 50.586H12.8514C12.4199 50.0957 12.0039 49.5747 11.6186 49.0538C7.6928 43.8461 5.57308 37.512 5.57819 31.0037V30.3295C5.56918 24.4591 7.29454 18.7154 10.54 13.8117C10.879 13.2907 11.2334 12.7697 11.6186 12.2794H35.1178C36.6704 12.2911 37.926 13.5397 37.9377 15.0835Z" fill="black"/>
<path opacity="0.2" d="M36.3968 16.6159V49.3145C36.3968 49.6777 36.3234 50.0372 36.1811 50.3717C35.7461 51.4223 34.7196 52.1109 33.5769 52.1185H14.2537C13.7661 51.6263 13.2983 51.1152 12.8514 50.5862C12.4199 50.0959 12.0039 49.5749 11.6186 49.054C7.6928 43.8464 5.57308 37.5122 5.57819 31.0039V30.3297C5.56918 24.4593 7.29454 18.7156 10.54 13.8119H33.5769C35.1295 13.8236 36.3851 15.0722 36.3968 16.6159Z" fill="black"/>
<path opacity="0.2" d="M36.3968 16.6159V46.2499C36.3851 47.7937 35.1294 49.0422 33.5769 49.054H11.6186C7.6928 43.8463 5.57308 37.5122 5.57819 31.0039V30.3297C5.56918 24.4593 7.29454 18.7156 10.54 13.8119H33.5769C35.1294 13.8235 36.3851 15.0721 36.3968 16.6159Z" fill="black"/>
<path opacity="0.2" d="M34.8559 16.6159V46.2499C34.8441 47.7937 33.5885 49.0422 32.036 49.054H11.6186C7.6928 43.8463 5.57308 37.5122 5.57819 31.0039V30.3297C5.56918 24.4593 7.29454 18.7156 10.54 13.8119H32.036C33.5885 13.8235 34.8441 15.0721 34.8559 16.6159Z" fill="black"/>
<path d="M3.77996 13.8119H32.0314C33.5913 13.8119 34.8559 15.0694 34.8559 16.6205V44.713C34.8559 46.2642 33.5913 47.5217 32.0314 47.5217H3.77996C2.22004 47.5217 0.955444 46.2642 0.955444 44.7131V16.6205C0.955444 15.0694 2.22004 13.8119 3.77996 13.8119Z" fill="url(#paint0_linear)"/>
<path d="M18.2138 21.3029C20.0529 21.1795 21.8762 21.7107 23.3575 22.8015C24.593 23.8983 25.2532 25.4988 25.148 27.1424C25.1682 28.2849 24.862 29.4098 24.2651 30.3862C23.6607 31.3458 22.79 32.1111 21.758 32.5896C20.5781 33.1352 19.2882 33.4047 17.9873 33.3772H14.4139V39.9812H10.7542V21.3029H18.2138ZM14.4108 30.5241H17.5605C18.559 30.597 19.5498 30.3032 20.345 29.6982C21.0027 29.0708 21.3474 28.1861 21.2865 27.2818C21.2865 25.2235 20.0835 24.1943 17.6776 24.1943H14.4109V30.5241H14.4108Z" fill="white"/>
<defs>
<linearGradient id="paint0_linear" x1="6.84465" y1="11.6173" x2="28.7801" y2="49.8235" gradientUnits="userSpaceOnUse">
<stop stop-color="#CA4C28"/>
<stop offset="0.5" stop-color="#C5401E"/>
<stop offset="1" stop-color="#B62F14"/>
</linearGradient>
</defs>
</svg>
