<svg xmlns="http://www.w3.org/2000/svg" width="63" height="62" viewBox="0 0 63 62">
  <defs>
    <linearGradient id="visual-studio-code-logo-a" x1="50%" x2="50%" y1="0%" y2="100%">
      <stop offset="0%" stop-color="#FFF"/>
      <stop offset="100%" stop-color="#FFF" stop-opacity="0"/>
    </linearGradient>
  </defs>
  <g fill="none" fill-rule="evenodd">
    <path fill="#0065A9" fill-rule="nonzero" d="M59.9303,6.988 L47.3095,0.8761 C45.8487,0.1687 44.1028,0.4671 42.9562,1.6202 L1.6401,39.509 C0.5288,40.5282 0.5301,42.2879 1.6429,43.3054 L5.0177,46.3911 C5.9275,47.223 7.2976,47.2842 8.2771,46.5369 L58.0312,8.5736 C59.7003,7.3 62.0978,8.4974 62.0978,10.6047 L62.0978,10.4573 C62.0978,8.9781 61.2553,7.6297 59.9303,6.988 L59.9303,6.988 Z"/>
    <path fill="#007ACC" fill-rule="nonzero" d="M59.9303,55.2934 L47.3095,61.4054 C45.8487,62.1126 44.1028,61.8142 42.9562,60.6612 L1.6401,22.7724 C0.5288,21.7533 0.5301,19.9935 1.6429,18.9761 L5.0177,15.8902 C5.9275,15.0584 7.2976,14.9972 8.2771,15.7446 L58.0312,53.7077 C59.7003,54.9813 62.0978,53.784 62.0978,51.6766 L62.0978,51.8241 C62.0978,53.3032 61.2553,54.6516 59.9303,55.2934 L59.9303,55.2934 Z"/>
    <path fill="#1F9CF0" fill-rule="nonzero" d="M47.3102,61.4063 C45.849,62.1131 44.103,61.8145 42.9564,60.6613 C44.3691,62.0821 46.7847,61.0757 46.7847,59.0662 L46.7847,3.2151 C46.7847,1.2056 44.3691,0.1992 42.9564,1.6202 C44.103,0.4669 45.849,0.1681 47.3102,0.8749 L59.9288,6.9784 C61.2548,7.6198 62.098,8.9687 62.098,10.4485 L62.098,51.833 C62.098,53.3128 61.2548,54.6617 59.9288,55.303 L47.3102,61.4063 Z"/>
    <path fill="url(#visual-studio-code-logo-a)" d="M44.2432,61.5242 C45.208,61.902 46.3081,61.878 47.2817,61.4068 L59.8927,55.3032 C61.218,54.6619 62.0607,53.313 62.0607,51.8332 L62.0607,10.4488 C62.0607,8.9689 61.218,7.62 59.8929,6.9787 L47.2817,0.8752 C46.004,0.2567 44.5083,0.4082 43.3866,1.2283 C43.2266,1.3454 43.0739,1.4763 42.9306,1.6204 L18.7884,23.7734 L8.2725,15.7448 C7.2936,14.9974 5.9243,15.0587 5.0152,15.8905 L1.6424,18.9763 C0.5303,19.9938 0.529,21.7535 1.6396,22.7726 L10.7594,31.1409 L1.6396,39.5092 C0.529,40.5284 0.5303,42.2881 1.6424,43.3056 L5.0152,46.3913 C5.9243,47.2232 7.2936,47.2843 8.2725,46.5371 L18.7884,38.5083 L42.9306,60.6615 C43.3125,61.0458 43.7611,61.3353 44.2432,61.5242 L44.2432,61.5242 Z M46.7568,17.1552 L28.4382,31.1409 L46.7568,45.1266 L46.7568,17.1552 Z" opacity=".063"/>
  </g>
</svg>
