<svg width="67" height="62" viewBox="0 0 67 62" fill="none" xmlns="http://www.w3.org/2000/svg">
<path d="M63.6488 0.0213623H18.8147C17.2673 0.0213623 16.0132 1.27883 16.0132 2.83005V15.3441L41.996 23.0055L66.4503 15.3441V2.83005C66.4503 1.27894 65.196 0.0213623 63.6488 0.0213623Z" fill="#41A5EE"/>
<path d="M66.4503 15.3442H16.0132V30.667L41.996 35.2638L66.4503 30.667V15.3442Z" fill="#2B7CD3"/>
<path d="M16.0132 30.6667V45.9895L40.4675 49.0541L66.4503 45.9895V30.6667H16.0132Z" fill="#185ABD"/>
<path d="M18.8147 61.3119H63.6488C65.1961 61.3119 66.4504 60.0545 66.4504 58.5033V45.9894H16.0132V58.5034C16.0132 60.0545 17.2673 61.3119 18.8147 61.3119Z" fill="#103F91"/>
<path opacity="0.1" d="M34.609 12.2795H16.0132V50.5863H34.6092C36.1544 50.5812 37.4057 49.3266 37.4108 47.7776V15.0882C37.4056 13.5391 36.1543 12.2846 34.609 12.2795Z" fill="black"/>
<path opacity="0.2" d="M33.0808 13.8118H16.0132V52.1184H33.0808C34.6259 52.1134 35.8773 50.8588 35.8823 49.3098V16.6205C35.8773 15.0713 34.6259 13.8167 33.0808 13.8118Z" fill="black"/>
<path opacity="0.2" d="M33.0808 13.8118H16.0132V49.0539H33.0808C34.6259 49.0488 35.8773 47.7942 35.8823 46.2452V16.6205C35.8773 15.0713 34.6259 13.8167 33.0808 13.8118Z" fill="black"/>
<path opacity="0.2" d="M31.5524 13.8118H16.0132V49.0539H31.5524C33.0975 49.0488 34.3488 47.7942 34.3539 46.2452V16.6205C34.3488 15.0713 33.0975 13.8167 31.5524 13.8118Z" fill="black"/>
<path d="M3.53055 13.8118H31.5524C33.0997 13.8118 34.3539 15.0692 34.3539 16.6204V44.7129C34.3539 46.2642 33.0997 47.5216 31.5524 47.5216H3.53055C1.98335 47.5217 0.729053 46.2642 0.729053 44.713V16.6205C0.729053 15.0692 1.98335 13.8118 3.53055 13.8118Z" fill="url(#paint0_linear)"/>
<path d="M12.2257 35.3526C12.2807 35.7863 12.3173 36.1631 12.3341 36.4864H12.3982C12.4228 36.18 12.4737 35.8108 12.5512 35.3786C12.6286 34.9465 12.6984 34.5814 12.7605 34.2831L15.7072 21.5377H19.5175L22.5744 34.0915C22.7519 34.8721 22.8792 35.6634 22.955 36.4603H23.0054C23.0624 35.6882 23.1686 34.9205 23.3233 34.1619L25.7611 21.5315H29.229L24.9464 39.7961H20.8947L17.9907 27.7004C17.9066 27.3525 17.8104 26.8975 17.7049 26.3382C17.5994 25.779 17.5337 25.3699 17.5077 25.1124H17.4573C17.4236 25.4097 17.3579 25.851 17.2601 26.4363C17.1623 27.0216 17.0838 27.4547 17.0247 27.7356L14.2949 39.7931H10.1745L5.86896 21.5377H9.39957L12.0545 34.3092C12.1141 34.5712 12.1706 34.9205 12.2257 35.3526Z" fill="white"/>
<defs>
<linearGradient id="paint0_linear" x1="6.56983" y1="11.6189" x2="28.5933" y2="49.6666" gradientUnits="userSpaceOnUse">
<stop stop-color="#2368C4"/>
<stop offset="0.5" stop-color="#1A5DBE"/>
<stop offset="1" stop-color="#1146AC"/>
</linearGradient>
</defs>
</svg>
